<?xml version="1.0" encoding="UTF-8"?>
<svg xmlns="http://www.w3.org/2000/svg" xmlns:xlink="http://www.w3.org/1999/xlink" width="3750" height="2250" viewBox="0 0 3750 2250">
<rect x="-375" y="-225" width="4500" height="2700" fill="rgb(65.429688%, 91.014099%, 99.609375%)" fill-opacity="1"/>
<path fill-rule="nonzero" fill="rgb(58.396912%, 88.671875%, 99.609375%)" fill-opacity="1" d="M 0 0 L 0 625 C 292.683594 560.21875 828.019531 445.871094 963.828125 445.871094 C 1152.820312 445.871094 1814.269531 683.339844 1984.351562 693.03125 C 2154.441406 702.71875 2620.609375 450.710938 2859.988281 445.871094 C 3017.980469 442.671875 3463.03125 552.609375 3750 628.320312 L 3750 0 Z M 0 0 "/>
<path fill-rule="nonzero" fill="rgb(74.414062%, 92.96875%, 100%)" fill-opacity="1" d="M 2797.390625 778.820312 L 2784.03125 923.761719 L 2712.75 923.761719 L 2699.390625 876.859375 L 2543.488281 889.648438 C 2543.488281 889.648438 2565.761719 1384.148438 2565.761719 1418.25 C 2565.761719 1452.355469 2485.578125 1418.25 2485.578125 1418.25 L 2507.851562 1111.320312 L 2338.578125 1128.371094 L 2351.949219 932.28125 L 2031.230469 919.488281 L 2049.039062 1286.101562 L 1959.960938 1290.363281 L 1959.960938 1064.429688 L 1839.691406 1060.171875 L 1839.691406 1482.195312 L 1746.140625 1490.71875 L 1763.960938 842.761719 L 1447.691406 851.28125 L 1447.691406 1209.371094 L 1380.878906 1217.890625 L 1376.421875 970.648438 L 1100.25 970.648438 L 1109.160156 1512.035156 L 1015.609375 1537.613281 L 997.796875 1264.789062 L 837.433594 1273.3125 L 837.433594 1456.617188 L 779.527344 1456.617188 L 775.074219 898.179688 L 489.988281 893.910156 L 476.625 1273.3125 L 432.082031 1273.3125 L 436.535156 983.441406 L 231.632812 1000.488281 L 222.722656 1477.933594 L 169.269531 1477.933594 L 160.359375 1230.679688 L 0 1230.679688 L 0 2250 L 3750 2250 L 3750 868.378906 L 3563.558594 881.128906 C 3563.558594 881.128906 3585.828125 1234.949219 3585.828125 1256.261719 C 3585.828125 1277.578125 3536.828125 1256.261719 3536.828125 1256.261719 L 3487.828125 987.699219 L 3385.378906 1021.800781 L 3394.28125 1396.9375 L 3309.648438 1409.726562 L 3296.289062 778.820312 L 3104.75 778.820312 L 3118.109375 1102.800781 L 3029.019531 1102.800781 L 3015.660156 787.339844 Z M 2797.390625 778.820312 "/>
<path fill-rule="nonzero" fill="rgb(65.429688%, 33.714294%, 1.960754%)" fill-opacity="1" d="M 246.050781 1843.53125 C 193.925781 1843.003906 83.597656 1873.519531 0 1899.246094 L 0 2250 L 3750 2250 L 3750 1876.703125 C 3699.03125 1882.71875 3641.210938 1887.890625 3578.140625 1889.859375 C 3376.550781 1896.160156 3300.960938 1921.359375 3149.769531 1921.359375 C 2998.578125 1921.359375 2790.691406 1864.660156 2608.011719 1883.558594 C 2425.320312 1902.460938 2223.730469 1915.058594 2041.050781 1915.058594 C 1858.359375 1915.058594 1524.488281 1864.664062 1385.898438 1864.664062 C 1247.308594 1864.664062 900.832031 1915.058594 762.242188 1927.65625 C 623.652344 1940.253906 327.574219 1864.660156 264.578125 1845.761719 C 259.757812 1844.316406 253.496094 1843.609375 246.050781 1843.53125 Z M 246.050781 1843.53125 "/>
<path fill-rule="nonzero" fill="rgb(63.084412%, 80.076599%, 0%)" fill-opacity="1" d="M 2796.359375 1636.371094 C 2783.808594 1636.597656 2771.398438 1637.089844 2759.199219 1637.878906 C 2563.910156 1650.476562 2406.421875 1694.574219 2293.03125 1694.574219 C 2179.640625 1694.574219 1807.96875 1631.578125 1600.078125 1637.878906 C 1392.191406 1644.179688 1121.320312 1713.472656 963.828125 1713.472656 C 806.339844 1713.472656 459.867188 1675.675781 270.878906 1675.675781 C 181.566406 1675.675781 81.238281 1698.207031 0 1721.953125 L 0 1899.246094 C 95.542969 1869.84375 225.992188 1834.1875 264.578125 1845.761719 C 327.574219 1864.660156 623.652344 1940.253906 762.242188 1927.65625 C 900.832031 1915.058594 1247.308594 1864.664062 1385.898438 1864.664062 C 1524.488281 1864.664062 1858.359375 1915.058594 2041.050781 1915.058594 C 2223.730469 1915.058594 2425.320312 1902.460938 2608.011719 1883.558594 C 2790.691406 1864.660156 2998.578125 1921.359375 3149.769531 1921.359375 C 3300.960938 1921.359375 3376.550781 1896.160156 3578.140625 1889.859375 C 3641.210938 1887.890625 3699.03125 1882.71875 3750 1876.703125 L 3750 1675.875 C 3606.609375 1691.011719 3411.960938 1708.445312 3332.449219 1700.875 C 3208.429688 1689.0625 2984.75 1632.957031 2796.359375 1636.371094 Z M 2796.359375 1636.371094 "/>
<path fill-rule="nonzero" fill="rgb(48.631287%, 24.705505%, 0%)" fill-opacity="1" d="M 246.050781 1843.53125 C 193.925781 1843.003906 83.597656 1873.519531 0 1899.246094 L 0 1949.128906 C 69.921875 1936.488281 159.03125 1921.359375 188.984375 1921.359375 C 239.382812 1921.359375 655.152344 2003.25 680.347656 2003.25 C 705.546875 2003.25 1165.410156 1959.15625 1247.308594 1946.554688 C 1329.199219 1933.957031 1618.980469 1959.15625 1675.679688 1959.15625 C 1732.371094 1959.15625 2173.339844 2009.550781 2248.929688 2003.25 C 2324.53125 1996.953125 2570.210938 1946.554688 2645.808594 1946.554688 C 2721.398438 1946.554688 3036.378906 1996.953125 3124.570312 1996.953125 C 3212.761719 1996.953125 3471.039062 1946.554688 3565.53125 1946.554688 C 3608.949219 1946.554688 3682.691406 1947.917969 3750 1949.355469 L 3750 1876.703125 C 3699.03125 1882.71875 3641.210938 1887.890625 3578.140625 1889.859375 C 3376.550781 1896.160156 3300.960938 1921.359375 3149.769531 1921.359375 C 2998.578125 1921.359375 2790.691406 1864.660156 2608.011719 1883.558594 C 2425.320312 1902.460938 2223.730469 1915.058594 2041.050781 1915.058594 C 1858.359375 1915.058594 1524.488281 1864.664062 1385.898438 1864.664062 C 1247.308594 1864.664062 900.832031 1915.058594 762.242188 1927.65625 C 623.652344 1940.253906 327.574219 1864.660156 264.578125 1845.761719 C 259.757812 1844.316406 253.496094 1843.609375 246.050781 1843.53125 Z M 246.050781 1843.53125 "/>
<path fill-rule="nonzero" fill="rgb(57.226562%, 72.851562%, 0.392151%)" fill-opacity="1" d="M 189.671875 1816.1875 C 140.597656 1815.925781 64.632812 1830.355469 0 1844.992188 L 0 1906.246094 C 95.542969 1883.753906 225.992188 1856.46875 264.578125 1865.328125 C 327.574219 1879.785156 623.652344 1937.628906 762.242188 1927.988281 C 900.832031 1918.347656 1247.308594 1879.789062 1385.898438 1879.789062 C 1524.488281 1879.789062 1858.359375 1918.347656 2041.050781 1918.347656 C 2223.730469 1918.347656 2425.320312 1908.707031 2608.011719 1894.246094 C 2790.691406 1879.789062 2998.578125 1923.167969 3149.769531 1923.167969 C 3300.960938 1923.167969 3376.550781 1903.886719 3578.140625 1899.066406 C 3641.210938 1897.558594 3699.03125 1893.605469 3750 1889 L 3750 1850.867188 L 3590.730469 1850.867188 C 3496.238281 1850.867188 3376.550781 1841.226562 3269.460938 1865.328125 C 3162.371094 1889.425781 3004.878906 1860.507812 2922.980469 1841.226562 C 2841.089844 1821.945312 2658.398438 1836.40625 2513.519531 1841.226562 C 2368.628906 1846.046875 2204.839844 1870.148438 2041.050781 1870.148438 C 1877.261719 1870.148438 1757.570312 1841.226562 1694.570312 1831.585938 C 1631.578125 1821.945312 1241.011719 1841.226562 1133.921875 1841.226562 C 1026.820312 1841.226562 749.644531 1889.429688 648.851562 1889.429688 C 548.058594 1889.429688 296.078125 1826.765625 207.886719 1817.125 C 202.371094 1816.523438 196.269531 1816.222656 189.671875 1816.1875 Z M 189.671875 1816.1875 "/>
<path fill-rule="nonzero" fill="rgb(76.951599%, 92.96875%, 20.384216%)" fill-opacity="1" d="M 2796.359375 1636.359375 C 2783.808594 1636.570312 2771.398438 1637.027344 2759.199219 1637.757812 C 2563.910156 1649.4375 2406.421875 1690.316406 2293.03125 1690.316406 C 2179.640625 1690.316406 1807.96875 1631.917969 1600.078125 1637.757812 C 1392.191406 1643.597656 1121.320312 1707.835938 963.828125 1707.835938 C 806.339844 1707.835938 459.867188 1672.796875 270.878906 1672.796875 C 181.566406 1672.796875 81.238281 1693.683594 0 1715.695312 L 0 1749.390625 C 90.835938 1731.347656 224.609375 1705.085938 240.539062 1705.085938 C 262.8125 1705.085938 868.617188 1742.25 935.433594 1738.121094 C 1002.25 1733.992188 1501.148438 1667.921875 1536.78125 1663.792969 C 1572.421875 1659.664062 2102.5 1705.085938 2155.949219 1709.214844 C 2209.410156 1713.34375 2525.671875 1705.085938 2588.03125 1692.695312 C 2650.390625 1680.308594 2810.75 1659.664062 2859.75 1659.664062 C 2908.75 1659.664062 3171.558594 1709.214844 3225.019531 1713.34375 C 3278.46875 1717.472656 3487.828125 1717.472656 3550.191406 1717.472656 C 3584.398438 1717.472656 3674.039062 1710.164062 3750 1703.429688 L 3750 1672.980469 C 3606.609375 1687.011719 3411.960938 1703.175781 3332.449219 1696.15625 C 3208.429688 1685.207031 2984.75 1633.195312 2796.359375 1636.359375 Z M 2796.359375 1636.359375 "/>
<path fill-rule="evenodd" fill="rgb(78.125%, 45.092773%, 11.376953%)" fill-opacity="1" d="M 204.90625 2051.269531 C 204.90625 2074.640625 185.957031 2093.589844 162.585938 2093.589844 C 139.214844 2093.589844 120.269531 2074.640625 120.269531 2051.269531 C 120.269531 2027.898438 139.214844 2008.953125 162.585938 2008.953125 C 185.957031 2008.953125 204.90625 2027.898438 204.90625 2051.269531 Z M 204.90625 2051.269531 "/>
<path fill-rule="evenodd" fill="rgb(78.125%, 45.092773%, 11.376953%)" fill-opacity="1" d="M 516.714844 2120.316406 C 516.714844 2146.304688 506.390625 2171.230469 488.011719 2189.609375 C 469.632812 2207.988281 444.707031 2218.3125 418.71875 2218.3125 C 392.726562 2218.3125 367.800781 2207.988281 349.421875 2189.609375 C 331.042969 2171.230469 320.71875 2146.304688 320.71875 2120.316406 C 320.71875 2094.324219 331.042969 2069.398438 349.421875 2051.019531 C 367.800781 2032.640625 392.726562 2022.316406 418.71875 2022.316406 C 444.707031 2022.316406 469.632812 2032.640625 488.011719 2051.019531 C 506.390625 2069.398438 516.714844 2094.324219 516.714844 2120.316406 Z M 516.714844 2120.316406 "/>
<path fill-rule="evenodd" fill="rgb(78.125%, 45.092773%, 11.376953%)" fill-opacity="1" d="M 262.8125 1977.773438 C 262.8125 1982.5 260.933594 1987.03125 257.59375 1990.371094 C 254.253906 1993.714844 249.71875 1995.589844 244.996094 1995.589844 C 240.269531 1995.589844 235.738281 1993.714844 232.394531 1990.371094 C 229.054688 1987.03125 227.175781 1982.5 227.175781 1977.773438 C 227.175781 1967.933594 235.152344 1959.953125 244.996094 1959.953125 C 254.835938 1959.953125 262.8125 1967.933594 262.8125 1977.773438 Z M 262.8125 1977.773438 "/>
<path fill-rule="evenodd" fill="rgb(78.125%, 45.092773%, 11.376953%)" fill-opacity="1" d="M 917.617188 2091.359375 C 917.617188 2114.730469 898.667969 2133.679688 875.296875 2133.679688 C 864.074219 2133.679688 853.3125 2129.21875 845.375 2121.285156 C 837.4375 2113.347656 832.980469 2102.585938 832.980469 2091.359375 C 832.980469 2080.136719 837.4375 2069.375 845.375 2061.4375 C 853.3125 2053.503906 864.074219 2049.042969 875.296875 2049.042969 C 886.519531 2049.042969 897.285156 2053.503906 905.222656 2061.4375 C 913.15625 2069.375 917.617188 2080.136719 917.617188 2091.359375 Z M 917.617188 2091.359375 "/>
<path fill-rule="evenodd" fill="rgb(78.125%, 45.092773%, 11.376953%)" fill-opacity="1" d="M 1599.140625 2051.269531 C 1599.140625 2062.496094 1594.691406 2073.257812 1586.75 2081.195312 C 1578.820312 2089.128906 1568.050781 2093.589844 1556.828125 2093.589844 C 1533.460938 2093.589844 1514.511719 2074.640625 1514.511719 2051.269531 C 1514.511719 2027.898438 1533.460938 2008.953125 1556.828125 2008.953125 C 1568.050781 2008.953125 1578.820312 2013.414062 1586.75 2021.347656 C 1594.691406 2029.285156 1599.140625 2040.046875 1599.140625 2051.269531 Z M 1599.140625 2051.269531 "/>
<path fill-rule="evenodd" fill="rgb(78.125%, 45.092773%, 11.376953%)" fill-opacity="1" d="M 1946.589844 2175.996094 C 1946.589844 2199.367188 1927.640625 2218.3125 1904.269531 2218.3125 C 1893.050781 2218.3125 1882.289062 2213.855469 1874.351562 2205.917969 C 1866.410156 2197.980469 1861.960938 2187.21875 1861.960938 2175.996094 C 1861.960938 2164.773438 1866.410156 2154.007812 1874.351562 2146.074219 C 1882.289062 2138.136719 1893.050781 2133.679688 1904.269531 2133.679688 C 1927.640625 2133.679688 1946.589844 2152.625 1946.589844 2175.996094 Z M 1946.589844 2175.996094 "/>
<path fill-rule="evenodd" fill="rgb(78.125%, 45.092773%, 11.376953%)" fill-opacity="1" d="M 2588.03125 2051.269531 C 2588.03125 2074.640625 2569.089844 2093.589844 2545.71875 2093.589844 C 2522.339844 2093.589844 2503.398438 2074.640625 2503.398438 2051.269531 C 2503.398438 2027.898438 2522.339844 2008.953125 2545.71875 2008.953125 C 2569.089844 2008.953125 2588.03125 2027.898438 2588.03125 2051.269531 Z M 2588.03125 2051.269531 "/>
<path fill-rule="evenodd" fill="rgb(78.125%, 45.092773%, 11.376953%)" fill-opacity="1" d="M 3260.648438 2140.359375 C 3260.648438 2163.730469 3241.710938 2182.675781 3218.339844 2182.675781 C 3207.109375 2182.675781 3196.351562 2178.21875 3188.410156 2170.28125 C 3180.480469 2162.347656 3176.019531 2151.582031 3176.019531 2140.359375 C 3176.019531 2129.136719 3180.480469 2118.375 3188.410156 2110.4375 C 3196.351562 2102.5 3207.109375 2098.042969 3218.339844 2098.042969 C 3241.710938 2098.042969 3260.648438 2116.988281 3260.648438 2140.359375 Z M 3260.648438 2140.359375 "/>
<path fill-rule="evenodd" fill="rgb(78.125%, 45.092773%, 11.376953%)" fill-opacity="1" d="M 3719.460938 2024.542969 C 3719.460938 2035.765625 3715 2046.53125 3707.070312 2054.46875 C 3699.128906 2062.402344 3688.371094 2066.863281 3677.140625 2066.863281 C 3653.769531 2066.863281 3634.820312 2047.914062 3634.820312 2024.542969 C 3634.820312 2001.171875 3653.769531 1982.226562 3677.140625 1982.226562 C 3688.371094 1982.226562 3699.128906 1986.683594 3707.070312 1994.621094 C 3715 2002.558594 3719.460938 2013.320312 3719.460938 2024.542969 Z M 3719.460938 2024.542969 "/>
<path fill-rule="evenodd" fill="rgb(78.125%, 45.092773%, 11.376953%)" fill-opacity="1" d="M 1318.519531 2084.679688 C 1318.519531 2110.671875 1308.191406 2135.597656 1289.808594 2153.972656 C 1271.429688 2172.351562 1246.511719 2182.675781 1220.519531 2182.675781 C 1194.53125 2182.675781 1169.601562 2172.351562 1151.21875 2153.972656 C 1132.839844 2135.597656 1122.519531 2110.671875 1122.519531 2084.679688 C 1122.519531 2058.6875 1132.839844 2033.761719 1151.21875 2015.382812 C 1169.601562 1997.007812 1194.53125 1986.683594 1220.519531 1986.683594 C 1246.511719 1986.683594 1271.429688 1997.007812 1289.808594 2015.382812 C 1308.191406 2033.761719 1318.519531 2058.6875 1318.519531 2084.679688 Z M 1318.519531 2084.679688 "/>
<path fill-rule="evenodd" fill="rgb(78.125%, 45.092773%, 11.376953%)" fill-opacity="1" d="M 2899.839844 2093.589844 C 2899.839844 2147.710938 2855.96875 2191.585938 2801.839844 2191.585938 C 2775.859375 2191.585938 2750.929688 2181.261719 2732.550781 2162.882812 C 2714.171875 2144.503906 2703.851562 2119.578125 2703.851562 2093.589844 C 2703.851562 2067.597656 2714.171875 2042.671875 2732.550781 2024.292969 C 2750.929688 2005.914062 2775.859375 1995.589844 2801.839844 1995.589844 C 2855.96875 1995.589844 2899.839844 2039.464844 2899.839844 2093.589844 Z M 2899.839844 2093.589844 "/>
<path fill-rule="evenodd" fill="rgb(78.125%, 45.092773%, 11.376953%)" fill-opacity="1" d="M 3576.921875 2071.316406 C 3576.921875 2125.4375 3533.039062 2169.3125 3478.921875 2169.3125 C 3452.929688 2169.3125 3428 2158.988281 3409.628906 2140.609375 C 3391.25 2122.234375 3380.921875 2097.308594 3380.921875 2071.316406 C 3380.921875 2045.324219 3391.25 2020.398438 3409.628906 2002.019531 C 3428 1983.644531 3452.929688 1973.316406 3478.921875 1973.320312 C 3533.039062 1973.320312 3576.921875 2017.195312 3576.921875 2071.316406 Z M 3576.921875 2071.316406 "/>
<path fill-rule="evenodd" fill="rgb(78.125%, 45.092773%, 11.376953%)" fill-opacity="1" d="M 1812.960938 2098.042969 C 1812.960938 2124.035156 1802.628906 2148.960938 1784.25 2167.335938 C 1765.878906 2185.714844 1740.949219 2196.039062 1714.960938 2196.039062 C 1688.96875 2196.039062 1664.039062 2185.714844 1645.660156 2167.335938 C 1627.289062 2148.960938 1616.960938 2124.035156 1616.960938 2098.042969 C 1616.960938 2043.921875 1660.839844 2000.046875 1714.960938 2000.046875 C 1769.078125 2000.046875 1812.960938 2043.921875 1812.960938 2098.042969 Z M 1812.960938 2098.042969 "/>
<path fill-rule="evenodd" fill="rgb(78.125%, 45.092773%, 11.376953%)" fill-opacity="1" d="M 1091.339844 2013.40625 C 1091.339844 2018.132812 1089.460938 2022.664062 1086.121094 2026.007812 C 1082.78125 2029.347656 1078.25 2031.226562 1073.519531 2031.226562 C 1068.800781 2031.226562 1064.261719 2029.347656 1060.921875 2026.007812 C 1057.578125 2022.664062 1055.699219 2018.132812 1055.699219 2013.40625 C 1055.699219 2003.566406 1063.679688 1995.589844 1073.519531 1995.589844 C 1078.25 1995.589844 1082.78125 1997.46875 1086.121094 2000.808594 C 1089.460938 2004.152344 1091.339844 2008.683594 1091.339844 2013.40625 Z M 1091.339844 2013.40625 "/>
<path fill-rule="evenodd" fill="rgb(78.125%, 45.092773%, 11.376953%)" fill-opacity="1" d="M 1924.320312 2057.953125 C 1924.320312 2062.679688 1922.441406 2067.210938 1919.101562 2070.550781 C 1915.761719 2073.894531 1911.230469 2075.769531 1906.5 2075.769531 C 1896.660156 2075.769531 1888.679688 2067.792969 1888.679688 2057.953125 C 1888.679688 2053.226562 1890.558594 2048.695312 1893.898438 2045.351562 C 1897.238281 2042.011719 1901.78125 2040.136719 1906.5 2040.136719 C 1911.230469 2040.136719 1915.761719 2042.011719 1919.101562 2045.351562 C 1922.441406 2048.695312 1924.320312 2053.226562 1924.320312 2057.953125 Z M 1924.320312 2057.953125 "/>
<path fill-rule="evenodd" fill="rgb(78.125%, 45.092773%, 11.376953%)" fill-opacity="1" d="M 2654.851562 2173.769531 C 2654.851562 2183.609375 2646.871094 2191.585938 2637.03125 2191.585938 C 2632.308594 2191.585938 2627.769531 2189.707031 2624.429688 2186.367188 C 2621.089844 2183.027344 2619.210938 2178.492188 2619.210938 2173.769531 C 2619.210938 2169.042969 2621.089844 2164.511719 2624.429688 2161.167969 C 2627.769531 2157.828125 2632.308594 2155.949219 2637.03125 2155.949219 C 2641.761719 2155.949219 2646.289062 2157.828125 2649.628906 2161.167969 C 2652.96875 2164.511719 2654.851562 2169.042969 2654.851562 2173.769531 Z M 2654.851562 2173.769531 "/>
<path fill-rule="evenodd" fill="rgb(78.125%, 45.092773%, 11.376953%)" fill-opacity="1" d="M 3323.019531 2031.226562 C 3323.019531 2041.066406 3315.039062 2049.042969 3305.191406 2049.042969 C 3295.359375 2049.042969 3287.378906 2041.066406 3287.378906 2031.226562 C 3287.378906 2021.386719 3295.359375 2013.40625 3305.191406 2013.40625 C 3315.039062 2013.40625 3323.019531 2021.386719 3323.019531 2031.226562 Z M 3323.019531 2031.226562 "/>
<path fill-rule="evenodd" fill="rgb(78.125%, 45.092773%, 11.376953%)" fill-opacity="1" d="M 3697.191406 2187.132812 C 3697.191406 2196.972656 3689.210938 2204.949219 3679.371094 2204.949219 C 3669.53125 2204.949219 3661.550781 2196.972656 3661.550781 2187.132812 C 3661.550781 2177.289062 3669.53125 2169.3125 3679.371094 2169.3125 C 3689.210938 2169.3125 3697.191406 2177.289062 3697.191406 2187.132812 Z M 3697.191406 2187.132812 "/>
<path fill-rule="evenodd" fill="rgb(78.125%, 45.092773%, 11.376953%)" fill-opacity="1" d="M 2102.5 2102.496094 C 2102.5 2117.855469 2096.390625 2132.585938 2085.539062 2143.445312 C 2074.679688 2154.304688 2059.949219 2160.40625 2044.589844 2160.40625 C 2029.230469 2160.40625 2014.5 2154.304688 2003.640625 2143.445312 C 1992.78125 2132.585938 1986.679688 2117.855469 1986.679688 2102.496094 C 1986.679688 2087.140625 1992.78125 2072.410156 2003.640625 2061.550781 C 2014.5 2050.691406 2029.230469 2044.589844 2044.589844 2044.589844 C 2059.949219 2044.589844 2074.679688 2050.691406 2085.539062 2061.550781 C 2096.390625 2072.410156 2102.5 2087.140625 2102.5 2102.496094 Z M 2102.5 2102.496094 "/>
<path fill-rule="evenodd" fill="rgb(78.125%, 45.092773%, 11.376953%)" fill-opacity="1" d="M 2525.671875 2169.3125 C 2525.671875 2184.671875 2519.570312 2199.402344 2508.710938 2210.261719 C 2497.851562 2221.121094 2483.121094 2227.222656 2467.761719 2227.222656 C 2452.398438 2227.222656 2437.679688 2221.121094 2426.820312 2210.261719 C 2415.949219 2199.402344 2409.859375 2184.671875 2409.859375 2169.3125 C 2409.859375 2153.957031 2415.949219 2139.226562 2426.820312 2128.367188 C 2437.679688 2117.507812 2452.398438 2111.40625 2467.761719 2111.40625 C 2483.121094 2111.40625 2497.851562 2117.507812 2508.710938 2128.367188 C 2519.570312 2139.226562 2525.671875 2153.957031 2525.671875 2169.3125 Z M 2525.671875 2169.3125 "/>
<path fill-rule="evenodd" fill="rgb(78.125%, 45.092773%, 11.376953%)" fill-opacity="1" d="M 3042.378906 2080.226562 C 3042.378906 2112.207031 3016.460938 2138.132812 2984.480469 2138.132812 C 2969.121094 2138.132812 2954.390625 2132.03125 2943.53125 2121.171875 C 2932.671875 2110.3125 2926.570312 2095.582031 2926.570312 2080.226562 C 2926.570312 2064.867188 2932.671875 2050.136719 2943.53125 2039.277344 C 2954.390625 2028.417969 2969.121094 2022.316406 2984.480469 2022.316406 C 3016.460938 2022.316406 3042.378906 2048.242188 3042.378906 2080.226562 Z M 3042.378906 2080.226562 "/>
<path fill-rule="evenodd" fill="rgb(78.125%, 45.092773%, 11.376953%)" fill-opacity="1" d="M 645.894531 2164.859375 C 645.894531 2180.21875 639.792969 2194.945312 628.933594 2205.804688 C 618.074219 2216.667969 603.34375 2222.765625 587.988281 2222.765625 C 572.628906 2222.765625 557.898438 2216.667969 547.039062 2205.804688 C 536.179688 2194.945312 530.078125 2180.21875 530.078125 2164.859375 C 530.078125 2149.5 536.179688 2134.773438 547.039062 2123.914062 C 557.898438 2113.050781 572.628906 2106.953125 587.988281 2106.953125 C 603.34375 2106.953125 618.074219 2113.050781 628.933594 2123.914062 C 639.792969 2134.773438 645.894531 2149.5 645.894531 2164.859375 Z M 645.894531 2164.859375 "/>
<path fill-rule="evenodd" fill="rgb(78.125%, 45.092773%, 11.376953%)" fill-opacity="1" d="M 155.90625 2164.859375 C 155.90625 2196.839844 129.980469 2222.765625 97.996094 2222.765625 C 82.640625 2222.765625 67.910156 2216.667969 57.050781 2205.804688 C 46.191406 2194.945312 40.089844 2180.21875 40.089844 2164.859375 C 40.089844 2149.5 46.191406 2134.773438 57.050781 2123.914062 C 67.910156 2113.050781 82.640625 2106.953125 97.996094 2106.953125 C 129.980469 2106.953125 155.90625 2132.878906 155.90625 2164.859375 Z M 155.90625 2164.859375 "/>
<path fill-rule="evenodd" fill="rgb(78.125%, 45.092773%, 11.376953%)" fill-opacity="1" d="M 1086.878906 2155.949219 C 1086.878906 2187.933594 1060.960938 2213.859375 1028.980469 2213.859375 C 1013.621094 2213.859375 998.890625 2207.757812 988.03125 2196.898438 C 977.167969 2186.039062 971.070312 2171.308594 971.070312 2155.949219 C 971.070312 2123.96875 996.996094 2098.042969 1028.980469 2098.042969 C 1044.339844 2098.042969 1059.058594 2104.144531 1069.921875 2115.003906 C 1080.78125 2125.863281 1086.878906 2140.59375 1086.878906 2155.949219 Z M 1086.878906 2155.949219 "/>
<path fill-rule="evenodd" fill="rgb(78.125%, 45.092773%, 11.376953%)" fill-opacity="1" d="M 1469.960938 2138.132812 C 1469.960938 2153.492188 1463.871094 2168.21875 1453 2179.078125 C 1442.140625 2189.941406 1427.421875 2196.039062 1412.058594 2196.039062 C 1380.078125 2196.039062 1354.148438 2170.113281 1354.148438 2138.132812 C 1354.148438 2122.773438 1360.25 2108.046875 1371.109375 2097.1875 C 1381.96875 2086.324219 1396.699219 2080.226562 1412.058594 2080.226562 C 1444.039062 2080.226562 1469.960938 2106.152344 1469.960938 2138.132812 Z M 1469.960938 2138.132812 "/>
<path fill-rule="evenodd" fill="rgb(78.125%, 45.092773%, 11.376953%)" fill-opacity="1" d="M 2218.308594 2071.316406 C 2218.308594 2076.042969 2216.429688 2080.574219 2213.089844 2083.914062 C 2209.75 2087.257812 2205.21875 2089.132812 2200.5 2089.132812 C 2195.769531 2089.132812 2191.238281 2087.257812 2187.890625 2083.914062 C 2184.558594 2080.574219 2182.679688 2076.042969 2182.679688 2071.316406 C 2182.679688 2066.589844 2184.558594 2062.058594 2187.890625 2058.71875 C 2191.238281 2055.375 2195.769531 2053.5 2200.5 2053.5 C 2210.339844 2053.5 2218.308594 2061.476562 2218.308594 2071.316406 Z M 2218.308594 2071.316406 "/>
<path fill-rule="evenodd" fill="rgb(78.125%, 45.092773%, 11.376953%)" fill-opacity="1" d="M 3336.378906 2178.222656 C 3336.378906 2188.0625 3328.398438 2196.039062 3318.558594 2196.039062 C 3308.71875 2196.039062 3300.738281 2188.0625 3300.738281 2178.222656 C 3300.738281 2168.382812 3308.71875 2160.40625 3318.558594 2160.40625 C 3328.398438 2160.40625 3336.378906 2168.382812 3336.378906 2178.222656 Z M 3336.378906 2178.222656 "/>
<path fill-rule="evenodd" fill="rgb(78.125%, 45.092773%, 11.376953%)" fill-opacity="1" d="M 917.617188 2173.769531 C 917.617188 2183.609375 909.636719 2191.585938 899.796875 2191.585938 C 895.070312 2191.585938 890.539062 2189.707031 887.199219 2186.367188 C 883.855469 2183.027344 881.980469 2178.492188 881.980469 2173.769531 C 881.980469 2169.042969 883.855469 2164.511719 887.199219 2161.167969 C 890.539062 2157.828125 895.070312 2155.949219 899.796875 2155.949219 C 904.523438 2155.949219 909.054688 2157.828125 912.398438 2161.167969 C 915.738281 2164.511719 917.617188 2169.042969 917.617188 2173.769531 Z M 917.617188 2173.769531 "/>
<path fill-rule="evenodd" fill="rgb(78.125%, 45.092773%, 11.376953%)" fill-opacity="1" d="M 222.722656 2147.042969 C 222.722656 2156.882812 214.746094 2164.859375 204.90625 2164.859375 C 195.0625 2164.859375 187.085938 2156.882812 187.085938 2147.042969 C 187.085938 2142.316406 188.964844 2137.785156 192.304688 2134.441406 C 195.648438 2131.101562 200.179688 2129.222656 204.90625 2129.222656 C 209.628906 2129.222656 214.160156 2131.101562 217.503906 2134.441406 C 220.84375 2137.785156 222.722656 2142.316406 222.722656 2147.042969 Z M 222.722656 2147.042969 "/>
<path fill-rule="evenodd" fill="rgb(78.125%, 45.092773%, 11.376953%)" fill-opacity="1" d="M 570.167969 2044.589844 C 570.167969 2049.316406 568.292969 2053.847656 564.949219 2057.1875 C 561.609375 2060.53125 557.078125 2062.40625 552.351562 2062.40625 C 547.625 2062.40625 543.09375 2060.53125 539.75 2057.1875 C 536.410156 2053.847656 534.53125 2049.316406 534.53125 2044.589844 C 534.53125 2039.863281 536.410156 2035.332031 539.75 2031.988281 C 543.09375 2028.648438 547.625 2026.769531 552.351562 2026.769531 C 562.191406 2026.769531 570.167969 2034.75 570.167969 2044.589844 Z M 570.167969 2044.589844 "/>
<path fill-rule="evenodd" fill="rgb(78.125%, 45.092773%, 11.376953%)" fill-opacity="1" d="M 2209.398438 2167.085938 C 2209.398438 2190.457031 2190.460938 2209.402344 2167.089844 2209.402344 C 2143.71875 2209.402344 2124.769531 2190.457031 2124.769531 2167.085938 C 2124.769531 2143.714844 2143.71875 2124.769531 2167.089844 2124.769531 C 2190.460938 2124.769531 2209.398438 2143.714844 2209.398438 2167.085938 Z M 2209.398438 2167.085938 "/>
<path fill-rule="evenodd" fill="rgb(78.125%, 45.092773%, 11.376953%)" fill-opacity="1" d="M 2423.21875 2069.089844 C 2423.21875 2092.460938 2404.269531 2111.40625 2380.898438 2111.40625 C 2357.53125 2111.40625 2338.578125 2092.460938 2338.578125 2069.089844 C 2338.578125 2045.71875 2357.53125 2026.773438 2380.898438 2026.773438 C 2404.269531 2026.773438 2423.21875 2045.71875 2423.21875 2069.089844 Z M 2423.21875 2069.089844 "/>
<path fill-rule="evenodd" fill="rgb(66.601562%, 53.318787%, 0%)" fill-opacity="1" d="M 3273.320312 1229.679688 L 3293.859375 1229.679688 C 3301.128906 1229.679688 3306.96875 1235.519531 3306.96875 1242.789062 L 3306.96875 1696.414062 C 3306.96875 1703.679688 3301.128906 1709.527344 3293.859375 1709.527344 L 3273.320312 1709.527344 C 3266.050781 1709.527344 3260.199219 1703.679688 3260.199219 1696.414062 L 3260.199219 1242.789062 C 3260.199219 1235.519531 3266.050781 1229.679688 3273.320312 1229.679688 Z M 3273.320312 1229.679688 "/>
<path fill-rule="evenodd" fill="rgb(66.601562%, 53.318787%, 0%)" fill-opacity="1" d="M 2810.058594 1229.679688 L 2830.601562 1229.679688 C 2837.859375 1229.679688 2843.710938 1235.519531 2843.710938 1242.789062 L 2843.710938 1696.414062 C 2843.710938 1703.679688 2837.859375 1709.527344 2830.601562 1709.527344 L 2810.058594 1709.527344 C 2802.789062 1709.527344 2796.941406 1703.679688 2796.941406 1696.414062 L 2796.941406 1242.789062 C 2796.941406 1235.519531 2802.789062 1229.679688 2810.058594 1229.679688 Z M 2810.058594 1229.679688 "/>
<path fill-rule="evenodd" fill="rgb(100%, 90.234375%, 50.193787%)" fill-opacity="1" d="M 2751.820312 1227.070312 L 3332.949219 1227.070312 C 3339.929688 1227.070312 3345.550781 1232.691406 3345.550781 1239.671875 L 3345.550781 1269.589844 C 3345.550781 1276.570312 3339.929688 1282.191406 3332.949219 1282.191406 L 2751.820312 1282.191406 C 2744.839844 1282.191406 2739.21875 1276.570312 2739.21875 1269.589844 L 2739.21875 1239.671875 C 2739.21875 1232.691406 2744.839844 1227.070312 2751.820312 1227.070312 Z M 2751.820312 1227.070312 "/>
<path fill-rule="evenodd" fill="rgb(100%, 83.201599%, 16.479492%)" fill-opacity="1" d="M 2751.820312 1227.070312 C 2744.839844 1227.070312 2739.21875 1232.691406 2739.21875 1239.671875 L 3345.550781 1239.671875 C 3345.550781 1232.691406 3339.929688 1227.070312 3332.949219 1227.070312 Z M 2751.820312 1227.070312 "/>
<path fill-rule="evenodd" fill="rgb(47.851562%, 34.910583%, 29.80957%)" fill-opacity="1" d="M 2828.988281 1254.628906 C 2828.988281 1256.925781 2828.070312 1259.128906 2826.449219 1260.753906 C 2824.828125 1262.378906 2822.628906 1263.292969 2820.328125 1263.292969 C 2818.03125 1263.292969 2815.820312 1262.378906 2814.199219 1260.753906 C 2812.578125 1259.128906 2811.660156 1256.925781 2811.660156 1254.628906 C 2811.660156 1249.851562 2815.539062 1245.96875 2820.328125 1245.96875 C 2825.109375 1245.96875 2828.988281 1249.851562 2828.988281 1254.628906 Z M 2828.988281 1254.628906 "/>
<path fill-rule="evenodd" fill="rgb(47.851562%, 34.910583%, 29.80957%)" fill-opacity="1" d="M 3292.25 1254.628906 C 3292.25 1256.925781 3291.339844 1259.128906 3289.71875 1260.753906 C 3288.089844 1262.378906 3285.890625 1263.292969 3283.589844 1263.292969 C 3281.289062 1263.292969 3279.089844 1262.378906 3277.46875 1260.753906 C 3275.839844 1259.128906 3274.929688 1256.925781 3274.929688 1254.628906 C 3274.929688 1249.851562 3278.808594 1245.96875 3283.589844 1245.96875 C 3288.371094 1245.96875 3292.25 1249.851562 3292.25 1254.628906 Z M 3292.25 1254.628906 "/>
<path fill-rule="evenodd" fill="rgb(100%, 90.234375%, 50.193787%)" fill-opacity="1" d="M 2751.820312 1303.90625 L 3332.949219 1303.90625 C 3339.929688 1303.90625 3345.550781 1309.527344 3345.550781 1316.507812 L 3345.550781 1346.429688 C 3345.550781 1353.410156 3339.929688 1359.027344 3332.949219 1359.027344 L 2751.820312 1359.027344 C 2744.839844 1359.027344 2739.21875 1353.410156 2739.21875 1346.429688 L 2739.21875 1316.507812 C 2739.21875 1309.527344 2744.839844 1303.90625 2751.820312 1303.90625 Z M 2751.820312 1303.90625 "/>
<path fill-rule="evenodd" fill="rgb(100%, 83.201599%, 16.479492%)" fill-opacity="1" d="M 2751.820312 1303.90625 C 2744.839844 1303.90625 2739.21875 1309.527344 2739.21875 1316.507812 L 3345.550781 1316.507812 C 3345.550781 1309.527344 3339.929688 1303.90625 3332.949219 1303.90625 Z M 2751.820312 1303.90625 "/>
<path fill-rule="evenodd" fill="rgb(47.851562%, 34.910583%, 29.80957%)" fill-opacity="1" d="M 2828.988281 1331.46875 C 2828.988281 1333.765625 2828.070312 1335.96875 2826.449219 1337.59375 C 2824.828125 1339.21875 2822.628906 1340.128906 2820.328125 1340.128906 C 2818.03125 1340.128906 2815.820312 1339.21875 2814.199219 1337.59375 C 2812.578125 1335.96875 2811.660156 1333.765625 2811.660156 1331.46875 C 2811.660156 1326.683594 2815.539062 1322.808594 2820.328125 1322.808594 C 2825.109375 1322.808594 2828.988281 1326.683594 2828.988281 1331.46875 Z M 2828.988281 1331.46875 "/>
<path fill-rule="evenodd" fill="rgb(47.851562%, 34.910583%, 29.80957%)" fill-opacity="1" d="M 3292.25 1331.46875 C 3292.25 1333.765625 3291.339844 1335.96875 3289.71875 1337.59375 C 3288.089844 1339.21875 3285.890625 1340.128906 3283.589844 1340.128906 C 3281.289062 1340.128906 3279.089844 1339.21875 3277.46875 1337.59375 C 3275.839844 1335.96875 3274.929688 1333.765625 3274.929688 1331.46875 C 3274.929688 1326.683594 3278.808594 1322.808594 3283.589844 1322.808594 C 3288.371094 1322.808594 3292.25 1326.683594 3292.25 1331.46875 Z M 3292.25 1331.46875 "/>
<path fill-rule="evenodd" fill="rgb(100%, 90.234375%, 50.193787%)" fill-opacity="1" d="M 2751.820312 1380.746094 L 3332.949219 1380.746094 C 3339.929688 1380.746094 3345.550781 1386.367188 3345.550781 1393.347656 L 3345.550781 1423.269531 C 3345.550781 1430.25 3339.929688 1435.867188 3332.949219 1435.867188 L 2751.820312 1435.867188 C 2744.839844 1435.867188 2739.21875 1430.25 2739.21875 1423.269531 L 2739.21875 1393.347656 C 2739.21875 1386.367188 2744.839844 1380.746094 2751.820312 1380.746094 Z M 2751.820312 1380.746094 "/>
<path fill-rule="evenodd" fill="rgb(100%, 83.201599%, 16.479492%)" fill-opacity="1" d="M 2751.820312 1380.746094 C 2744.839844 1380.746094 2739.21875 1386.367188 2739.21875 1393.347656 L 3345.550781 1393.347656 C 3345.550781 1386.367188 3339.929688 1380.746094 3332.949219 1380.746094 Z M 2751.820312 1380.746094 "/>
<path fill-rule="evenodd" fill="rgb(47.851562%, 34.910583%, 29.80957%)" fill-opacity="1" d="M 2828.988281 1408.308594 C 2828.988281 1410.605469 2828.070312 1412.808594 2826.449219 1414.433594 C 2824.828125 1416.058594 2822.628906 1416.96875 2820.328125 1416.96875 C 2818.03125 1416.96875 2815.820312 1416.058594 2814.199219 1414.433594 C 2812.578125 1412.808594 2811.660156 1410.605469 2811.660156 1408.308594 C 2811.660156 1403.523438 2815.539062 1399.644531 2820.328125 1399.644531 C 2825.109375 1399.644531 2828.988281 1403.523438 2828.988281 1408.308594 Z M 2828.988281 1408.308594 "/>
<path fill-rule="evenodd" fill="rgb(47.851562%, 34.910583%, 29.80957%)" fill-opacity="1" d="M 3292.25 1408.308594 C 3292.25 1410.605469 3291.339844 1412.808594 3289.71875 1414.433594 C 3288.089844 1416.058594 3285.890625 1416.96875 3283.589844 1416.96875 C 3281.289062 1416.96875 3279.089844 1416.058594 3277.46875 1414.433594 C 3275.839844 1412.808594 3274.929688 1410.605469 3274.929688 1408.308594 C 3274.929688 1403.523438 3278.808594 1399.644531 3283.589844 1399.644531 C 3288.371094 1399.644531 3292.25 1403.523438 3292.25 1408.308594 Z M 3292.25 1408.308594 "/>
<path fill-rule="evenodd" fill="rgb(100%, 83.201599%, 16.479492%)" fill-opacity="1" d="M 2703 1469.601562 L 3381.769531 1469.601562 L 3446.339844 1510.546875 L 2638.429688 1510.546875 Z M 2703 1469.601562 "/>
<path fill-rule="evenodd" fill="rgb(66.601562%, 53.318787%, 0%)" fill-opacity="1" d="M 2696.46875 1510.546875 L 2728.71875 1510.546875 C 2732.738281 1510.546875 2735.980469 1513.789062 2735.980469 1517.8125 L 2735.980469 1769.078125 C 2735.980469 1773.105469 2732.738281 1776.34375 2728.71875 1776.34375 L 2696.46875 1776.34375 C 2692.449219 1776.34375 2689.210938 1773.105469 2689.210938 1769.078125 L 2689.210938 1517.8125 C 2689.210938 1513.789062 2692.449219 1510.546875 2696.46875 1510.546875 Z M 2696.46875 1510.546875 "/>
<path fill-rule="evenodd" fill="rgb(66.601562%, 53.318787%, 0%)" fill-opacity="1" d="M 3356.058594 1510.546875 L 3388.300781 1510.546875 C 3392.320312 1510.546875 3395.558594 1513.789062 3395.558594 1517.8125 L 3395.558594 1769.078125 C 3395.558594 1773.105469 3392.320312 1776.34375 3388.300781 1776.34375 L 3356.058594 1776.34375 C 3352.03125 1776.34375 3348.789062 1773.105469 3348.789062 1769.078125 L 3348.789062 1517.8125 C 3348.789062 1513.789062 3352.03125 1510.546875 3356.058594 1510.546875 Z M 3356.058594 1510.546875 "/>
<path fill-rule="evenodd" fill="rgb(100%, 90.234375%, 50.193787%)" fill-opacity="1" d="M 2647.089844 1501.097656 L 3437.679688 1501.097656 C 3444.660156 1501.097656 3450.28125 1506.71875 3450.28125 1513.699219 L 3450.28125 1562.519531 C 3450.28125 1569.5 3444.660156 1575.117188 3437.679688 1575.117188 L 2647.089844 1575.117188 C 2640.109375 1575.117188 2634.488281 1569.5 2634.488281 1562.519531 L 2634.488281 1513.699219 C 2634.488281 1506.71875 2640.109375 1501.097656 2647.089844 1501.097656 Z M 2647.089844 1501.097656 "/>
<path fill-rule="evenodd" fill="rgb(100%, 100%, 100%)" fill-opacity="1" d="M 729.300781 170.839844 C 705.609375 170.839844 682.890625 177.210938 666.140625 188.539062 C 649.386719 199.871094 639.976562 215.238281 639.976562 231.261719 C 639.992188 236.101562 640.871094 240.929688 642.589844 245.621094 C 631.171875 242.191406 618.8125 240.421875 606.316406 240.410156 C 582.625 240.410156 559.90625 246.78125 543.152344 258.109375 C 526.402344 269.441406 516.992188 284.808594 516.992188 300.828125 C 516.996094 302.410156 517.097656 303.988281 517.285156 305.570312 C 494.878906 310.28125 478.152344 330.070312 478.152344 353.929688 C 478.152344 381.308594 500.199219 403.359375 527.585938 403.359375 L 842.984375 403.359375 C 870.371094 403.359375 892.417969 381.308594 892.417969 353.929688 C 892.417969 333.78125 880.476562 316.53125 863.265625 308.820312 C 863.796875 306.171875 864.066406 303.5 864.074219 300.828125 C 864.074219 278.160156 845.304688 257.390625 815.46875 247.058594 C 817.550781 241.910156 818.609375 236.601562 818.628906 231.261719 C 818.628906 215.238281 809.214844 199.871094 792.464844 188.539062 C 775.710938 177.210938 752.992188 170.839844 729.300781 170.839844 Z M 729.300781 170.839844 "/>
<path fill-rule="evenodd" fill="rgb(100%, 100%, 100%)" fill-opacity="1" d="M 2458.140625 359.828125 C 2418.160156 359.828125 2385.75 381.75 2385.75 408.789062 C 2385.769531 412.710938 2386.480469 416.621094 2387.878906 420.429688 C 2378.621094 417.648438 2368.609375 416.210938 2358.480469 416.210938 C 2339.28125 416.210938 2320.871094 421.371094 2307.300781 430.550781 C 2293.71875 439.730469 2286.089844 452.179688 2286.089844 465.160156 C 2286.101562 466.441406 2286.179688 467.730469 2286.328125 469 C 2268.179688 472.820312 2254.621094 488.859375 2254.621094 508.191406 C 2254.621094 530.378906 2272.488281 548.25 2294.679688 548.25 L 2550.261719 548.25 C 2572.449219 548.25 2590.320312 530.378906 2590.320312 508.191406 C 2590.320312 491.859375 2580.640625 477.890625 2566.699219 471.640625 C 2567.128906 469.488281 2567.339844 467.328125 2567.351562 465.160156 C 2567.351562 446.789062 2552.140625 429.96875 2527.96875 421.589844 C 2529.648438 417.421875 2530.511719 413.109375 2530.519531 408.789062 C 2530.519531 395.808594 2522.898438 383.351562 2509.320312 374.171875 C 2495.75 364.988281 2477.339844 359.828125 2458.140625 359.828125 Z M 2458.140625 359.828125 "/>
<path fill-rule="evenodd" fill="rgb(100%, 100%, 100%)" fill-opacity="1" d="M 3085.328125 139.351562 C 3035.988281 139.351562 2996 166.390625 2996 199.761719 C 2996.019531 204.609375 2996.898438 209.429688 2998.621094 214.128906 C 2987.199219 210.691406 2974.839844 208.921875 2962.339844 208.921875 C 2938.648438 208.921875 2915.929688 215.28125 2899.179688 226.609375 C 2882.429688 237.941406 2873.019531 253.308594 2873.019531 269.339844 C 2873.019531 270.910156 2873.121094 272.488281 2873.308594 274.070312 C 2850.898438 278.78125 2834.179688 298.578125 2834.179688 322.429688 C 2834.179688 349.808594 2856.230469 371.859375 2883.609375 371.859375 L 3199.011719 371.859375 C 3226.398438 371.859375 3248.441406 349.808594 3248.441406 322.429688 C 3248.441406 302.28125 3236.5 285.03125 3219.289062 277.320312 C 3219.820312 274.671875 3220.089844 272 3220.101562 269.339844 C 3220.101562 246.660156 3201.328125 225.898438 3171.5 215.558594 C 3173.570312 210.410156 3174.640625 205.101562 3174.648438 199.761719 C 3174.648438 183.738281 3165.238281 168.371094 3148.488281 157.039062 C 3131.738281 145.710938 3109.019531 139.351562 3085.328125 139.351562 Z M 3085.328125 139.351562 "/>
<path fill-rule="evenodd" fill="rgb(100%, 100%, 100%)" fill-opacity="1" d="M 1405.871094 333.738281 C 1387.960938 333.738281 1370.78125 338.550781 1358.109375 347.121094 C 1345.441406 355.679688 1338.328125 367.308594 1338.328125 379.421875 C 1338.339844 383.078125 1339 386.730469 1340.308594 390.28125 C 1331.671875 387.691406 1322.320312 386.339844 1312.878906 386.339844 C 1294.960938 386.339844 1277.78125 391.160156 1265.109375 399.71875 C 1252.441406 408.289062 1245.328125 419.910156 1245.328125 432.03125 C 1245.339844 433.21875 1245.410156 434.421875 1245.558594 435.609375 C 1228.609375 439.171875 1215.960938 454.140625 1215.960938 472.179688 C 1215.960938 492.878906 1232.628906 509.558594 1253.339844 509.558594 L 1491.839844 509.558594 C 1512.539062 509.558594 1529.210938 492.878906 1529.210938 472.179688 C 1529.210938 456.941406 1520.179688 443.898438 1507.171875 438.070312 C 1507.570312 436.070312 1507.769531 434.050781 1507.78125 432.03125 C 1507.78125 414.878906 1493.589844 399.179688 1471.03125 391.371094 C 1472.601562 387.480469 1473.398438 383.460938 1473.410156 379.421875 C 1473.410156 367.308594 1466.300781 355.679688 1453.628906 347.121094 C 1440.960938 338.550781 1423.789062 333.738281 1405.871094 333.738281 Z M 1405.871094 333.738281 "/>
<path fill-rule="evenodd" fill="rgb(100%, 100%, 100%)" fill-opacity="1" d="M 3537.179688 449.371094 C 3505.5 449.371094 3479.828125 466.730469 3479.828125 488.160156 C 3479.839844 491.269531 3480.398438 494.359375 3481.511719 497.378906 C 3474.179688 495.179688 3466.238281 494.03125 3458.21875 494.03125 C 3426.550781 494.03125 3400.871094 511.398438 3400.871094 532.820312 C 3400.878906 533.839844 3400.941406 534.851562 3401.070312 535.859375 C 3386.679688 538.890625 3375.941406 551.589844 3375.941406 566.910156 C 3375.941406 584.488281 3390.101562 598.640625 3407.679688 598.640625 L 3610.160156 598.640625 C 3627.75 598.640625 3641.898438 584.488281 3641.898438 566.910156 C 3641.898438 553.96875 3634.230469 542.898438 3623.179688 537.949219 C 3623.519531 536.25 3623.699219 534.53125 3623.699219 532.820312 C 3623.699219 518.269531 3611.648438 504.929688 3592.5 498.300781 C 3593.828125 494.988281 3594.519531 491.578125 3594.519531 488.160156 C 3594.519531 466.730469 3568.851562 449.371094 3537.179688 449.371094 Z M 3537.179688 449.371094 "/>
<path fill-rule="evenodd" fill="rgb(100%, 100%, 100%)" fill-opacity="1" d="M 288.304688 400.460938 C 265.777344 400.460938 247.511719 412.820312 247.511719 428.050781 C 247.519531 430.269531 247.921875 432.460938 248.707031 434.609375 C 243.492188 433.039062 237.847656 432.230469 232.140625 432.230469 C 209.613281 432.230469 191.351562 444.589844 191.351562 459.820312 C 191.355469 460.550781 191.398438 461.269531 191.488281 461.980469 C 181.253906 464.140625 173.617188 473.179688 173.617188 484.070312 C 173.617188 496.570312 183.683594 506.640625 196.191406 506.640625 L 340.222656 506.640625 C 352.730469 506.640625 362.796875 496.570312 362.796875 484.070312 C 362.796875 474.871094 357.34375 466.988281 349.484375 463.46875 C 349.726562 462.261719 349.851562 461.039062 349.855469 459.820312 C 349.851562 449.46875 341.28125 439.988281 327.65625 435.269531 C 328.605469 432.921875 329.089844 430.488281 329.097656 428.050781 C 329.097656 412.820312 310.835938 400.460938 288.304688 400.460938 Z M 288.304688 400.460938 "/>
</svg>
